<?xml version="1.0" encoding="UTF-8"?>
<svg version="1.1" xmlns="http://www.w3.org/2000/svg" width="736" height="736">
<path d="M0 0 C2 0 2 0 3.59765625 1.52734375 C5.47345605 4.83481248 5.39753753 7.86162809 5.4375 11.5625 C5.87183849 23.10648437 9.61794021 32.66816495 17.125 41.5 C36.66178783 58.48851116 56.18872933 61.16251544 81.25488281 61.12597656 C82.85628814 61.12737471 84.45769309 61.12927621 86.05909729 61.13163757 C89.48508246 61.13610315 92.91105576 61.13798995 96.33704376 61.13809967 C101.76962759 61.13924987 107.20214499 61.15215937 112.63470459 61.16766357 C113.55569514 61.17023643 114.47668568 61.17280928 115.42558503 61.1754601 C117.30766302 61.1807257 119.18974095 61.18601119 121.07181883 61.19131613 C133.70007119 61.22628376 146.328238 61.2529797 158.95654297 61.25048828 C167.5018601 61.24889313 176.04694705 61.26508199 184.5921905 61.30119491 C189.10083698 61.31953703 193.60909962 61.32910086 198.11777496 61.31671906 C202.36329493 61.30517053 206.60812984 61.31724314 210.85355949 61.34635353 C212.39811662 61.35291944 213.942738 61.35125797 215.48726845 61.34005547 C236.43951951 61.20087353 252.73036162 68.43982743 267.97265625 82.8671875 C280.95500004 96.64798979 286.63961013 114.98708875 286.26953125 133.64453125 C285.4539073 151.66459734 276.83470663 166.82589245 265 180 C263.7625 181.38251953 263.7625 181.38251953 262.5 182.79296875 C260.95806664 184.50540435 259.4082437 186.21079697 257.84765625 187.90625 C255.86054661 190.06333263 255.86054661 190.06333263 254 193 C253.34 193 252.68 193 252 193 C251.67 193.99 251.34 194.98 251 196 C249.3984375 197.578125 249.3984375 197.578125 247.375 199.25 C243.36899458 202.64686328 239.67392319 206.25177275 236 210 C234.33471017 211.66804237 232.66790169 213.33456927 231 215 C230.1028125 215.8971875 229.205625 216.794375 228.28125 217.71875 C204 242 204 242 201.3125 244.65625 C198.89418113 247.04173513 198.89418113 247.04173513 196.5 250 C194.1228428 252.85258864 191.64002529 255.39034411 189 258 C187.86482546 259.13182748 186.73024672 260.2642527 185.59613037 261.3971405 C184.28252345 262.7077249 182.96890368 264.01829641 181.65527344 265.32885742 C174.3333329 272.63448311 167.01392137 279.94263723 159.69594955 287.25223827 C155.27094596 291.67200215 150.84500408 296.09081825 146.41699219 300.50756836 C142.12970245 304.78402634 137.84483048 309.06289292 133.56165314 313.34346962 C131.92778506 314.97548614 130.29303527 316.60662045 128.65740204 318.2368679 C126.37833662 320.50871772 124.10237573 322.78363347 121.82714844 325.05932617 C121.14664429 325.73623505 120.46614014 326.41314392 119.76501465 327.11056519 C118.83982025 328.03782158 118.83982025 328.03782158 117.89593506 328.98381042 C117.3576495 329.52117419 116.81936394 330.05853796 116.26476669 330.61218548 C114.88892475 331.99554395 114.88892475 331.99554395 114 334 C113.34 334 112.68 334 112 334 C111.773125 334.639375 111.54625 335.27875 111.3125 335.9375 C110 338 110 338 107.71508789 338.93359375 C105 339 105 339 102.76342773 337.1328125 C101.93270752 336.14023437 101.1019873 335.14765625 100.24609375 334.125 C94.21012796 327.18732599 87.79612225 320.67356518 81.28515625 314.1875 C80.20938688 313.11323493 79.13373478 312.03885242 78.05819702 310.96435547 C75.29190631 308.20218204 72.52273682 305.4429118 69.75292969 302.68426514 C66.92393089 299.86558295 64.09783262 297.04399575 61.27148438 294.22265625 C56.31017766 289.27083121 51.34640958 284.32148589 46.38075256 279.37402344 C44.70127189 277.69928977 43.02500692 276.02132825 41.35105896 274.34106445 C39.76393351 272.76068598 38.14836747 271.2084356 36.5078125 269.68359375 C35.32832031 268.57177734 35.32832031 268.57177734 34.125 267.4375 C33.32320313 266.69371094 32.52140625 265.94992187 31.6953125 265.18359375 C30 263 30 263 29.8984375 261.06640625 C31.84692614 257.41126267 35.04400063 254.84597423 38.05078125 252.06640625 C40.79025143 249.45704283 42.34368836 247.7418287 43 244 C44.6635479 243.32558869 46.33066942 242.6599679 48 242 C49.33827304 240.33729713 50.67189785 238.67083819 52 237 C54.25 236.1875 54.25 236.1875 56 236 C56 235.34 56 234.68 56 234 C57.36328125 232.66015625 57.36328125 232.66015625 59.3125 231.0625 C64.85918064 226.35473013 69.89444913 221.17423541 75 216 C76.25683594 214.74509766 76.25683594 214.74509766 77.5390625 213.46484375 C79.1660729 211.83525079 80.78222224 210.19473357 82.38671875 208.54296875 C83.14597656 207.76566406 83.90523437 206.98835937 84.6875 206.1875 C85.45449219 205.39730469 86.22148437 204.60710937 87.01171875 203.79296875 C89 202 89 202 91 202 C91.66 200.68 92.32 199.36 93 198 C93.66 198 94.32 198 95 198 C95 197.34 95 196.68 95 196 C96.41601563 194.60522461 96.41601563 194.60522461 98.40625 192.96484375 C103.36581089 188.74768627 107.92328365 184.18766693 112.5 179.5625 C113.73363281 178.32209961 113.73363281 178.32209961 114.9921875 177.05664062 C116.99712113 175.04005041 118.99966253 173.02114764 121 171 C120.30868736 170.99945523 119.61737473 170.99891047 118.90511322 170.99834919 C102.01700275 170.98332573 85.1292052 170.9406556 68.24124908 170.86790943 C60.07405159 170.83338251 51.90702072 170.80792016 43.73974609 170.80444336 C36.61400349 170.80138623 29.48855858 170.78066315 22.36293077 170.73947543 C18.59634073 170.71830078 14.83017219 170.70546354 11.06352234 170.71384621 C-13.95245021 170.76013581 -34.43884702 168.54536314 -53.171875 150.08203125 C-66.02644709 136.60391649 -72.38947541 118.61689683 -72.30273438 100.17358398 C-71.89752126 84.19205395 -66.43585374 70.6872443 -57 58 C-56.34 56.9275 -55.68 55.855 -55 54.75 C-52.84913391 51.79255912 -50.54457027 49.74330125 -47.734375 47.4375 C-44.53549618 44.78617702 -41.7068343 41.92619667 -39.1875 38.625 C-36.72434879 35.66921855 -34.00378478 33.32293866 -31.0859375 30.828125 C-27.90135203 28.03713998 -24.96244135 25.02235589 -22 22 C-20.33471017 20.33195763 -18.66790169 18.66543073 -17 17 C-16.1028125 16.1028125 -15.205625 15.205625 -14.28125 14.28125 C-9.52083333 9.52083333 -4.76041667 4.76041667 0 0 Z " fill="#000000" transform="translate(261,252)"/>
<path d="M0 0 C2.375 0.25 2.375 0.25 5 1 C6.3125 3.0625 6.3125 3.0625 7 5 C7.66 5 8.32 5 9 5 C10.27062988 6.29681396 10.27062988 6.29681396 11.81445312 8.19433594 C16.60331255 13.82058313 21.87456384 18.92232111 27.14164734 24.09455109 C29.64373007 26.55414223 32.13614091 29.02344105 34.62924957 31.49212265 C39.25624367 36.07353226 43.88722786 40.65074086 48.53417969 45.21191406 C51.78195433 48.40047062 55.01753105 51.60095947 58.24525452 54.80980682 C59.47521335 56.02800346 60.70970003 57.24164584 61.94871521 58.45063019 C63.67208886 60.13321311 65.37950374 61.83053831 67.08398438 63.53222656 C67.85834335 64.2772644 67.85834335 64.2772644 68.64834595 65.03735352 C70.04138184 66.44683838 70.04138184 66.44683838 72 69 C71.88287243 73.22506112 68.81972902 76.08628002 66 79 C64.26581463 80.5639343 62.49342629 82.06797572 60.69921875 83.5625 C57.53475825 86.23956084 54.70172638 89.08049647 52.1875 92.375 C49.72434879 95.33078145 47.00378478 97.67706134 44.0859375 100.171875 C40.90135203 102.96286002 37.96244135 105.97764411 35 109 C33.33471017 110.66804237 31.66790169 112.33456927 30 114 C29.1028125 114.8971875 28.205625 115.794375 27.28125 116.71875 C24.52083333 119.47916667 21.76041667 122.23958333 19 125 C18.16984375 125.83144531 17.3396875 126.66289062 16.484375 127.51953125 C14.78120118 129.22002712 13.07257661 130.91507604 11.359375 132.60546875 C10.49828125 133.45753906 9.6371875 134.30960938 8.75 135.1875 C7.87859375 136.04730469 7.0071875 136.90710938 6.109375 137.79296875 C3.97005762 139.81431066 3.97005762 139.81431066 3 142 C2.34 142 1.68 142 1 142 C-0.4453125 140.49609375 -0.4453125 140.49609375 -2.125 138.4375 C-4.59014761 135.52739836 -7.0836023 132.95680973 -10 130.5 C-13.44879954 127.57616224 -16.35471748 124.42237713 -19.27734375 120.98046875 C-22.02340595 117.82343125 -25.01369453 114.92710559 -28 112 C-29.66804237 110.33471017 -31.33456927 108.66790169 -33 107 C-33.8971875 106.1028125 -34.794375 105.205625 -35.71875 104.28125 C-60 80 -60 80 -62.7265625 77.25390625 C-64.87898756 75.05517917 -64.87898756 75.05517917 -66.875 73.4375 C-67.24625 72.963125 -67.6175 72.48875 -68 72 C-67.34038753 67.40242088 -64.35311995 64.96043565 -61.16674805 61.84204102 C-60.55855225 61.23501343 -59.95035645 60.62798584 -59.32373047 60.00256348 C-57.3099366 57.99596145 -55.2858381 56.00008758 -53.26171875 54.00390625 C-51.85952979 52.60985476 -50.45807585 51.2150636 -49.05732727 49.81956482 C-45.36464472 46.14401414 -41.66349441 42.47711453 -37.96008301 38.81237793 C-32.04082444 32.95225789 -26.13409034 27.07952168 -20.22803688 21.20609856 C-18.16571205 19.15770372 -16.09959799 17.11319302 -14.03288269 15.06922913 C-12.76231484 13.80869006 -11.49182817 12.54806918 -10.22143555 11.28735352 C-9.64829117 10.72251755 -9.07514679 10.15768158 -8.4846344 9.57572937 C-5.4261767 6.53422498 -2.62628619 3.43460002 0 0 Z " fill="#000000" transform="translate(366,145)"/>
<path d="" fill="#000000" transform="translate(0,0)"/>
</svg>
